Patient4_TMGait_0pt3_01_right_25_EMG.mot
version=1
nRows=39
nColumns=33
inDegrees=no
endheader
time	1LAddLong	2LGlutMax	3LGlutMed	4LIliopsoas	5LSemiMemb	6LBicFemLong	7LRecFem	8LVastMed	9LVastLat	10LGasMed	11LTibAnt	12lTibPost	13LPeroneusLong	14LSol	15LExtDigLong	16LFlexDigLong	17RAddLong	18RGlutMax	19RGlutMed	20RIliopsoas	21RSemiMemb	22RBicFemLong	23RRecFem	24RVastMed	25RVastLat	26RGasMed	27RTibAnt	28RTibPost	29RPeroneusLong	30RSol	31RExtDigLong	32RFlexDigLong
47.995	0.012207	-0.30655	0.16068	0.00351	0.014343	0.056	-0.16769	-0.013733	-0.077057	0.046234	0.014191	-0.035248	0.070038	0.030518	0.010986	0.008087	-0.047913	0.095673	-0.28	0.053253	0.098724	0.010834	0.02182	0.014648	0.025635	-0.000305	-0.57632	-0.002136	0.1413	0.10346	-0.001831	-0.001526
47.996	0.014343	-0.3743	-0.031281	0.014648	0.01297	0.1004	0.001984	-0.036926	0.018768	0.030975	0.00824	-0.012665	0.035095	-0.025635	-0.00412	0.005951	-0.018463	0.12177	-0.30136	0.054626	0.10834	0.027466	0.030823	0.010834	0.009766	-0.004272	-0.22659	-0.000305	0.033875	0.049744	0.001221	0.002899
47.997	0.006409	-0.41336	-0.066071	0.009308	0.001373	0.028229	0.075378	-0.035858	0.057831	0.021973	-0.000916	0.002899	0.1944	0.041809	0.004578	-0.002136	0.071106	0.10651	-0.31693	0.062561	0.13153	-0.007019	-0.014954	-0.005951	-0.017548	-0.005646	0.20203	-0.007324	0.04425	0.01709	-0.003357	-0.000458
47.998	-0.004272	-0.33966	-0.082245	-0.017242	-0.001678	-0.045776	0.034485	-0.038452	0.010834	0.029755	-0.003357	-0.003967	-0.095367	0.11826	0.056915	0.017548	0.10254	0.07843	-0.34286	0.055084	0.11414	-0.007782	0.022888	-0.010071	-0.004578	-0.007324	0.3624	-0.000916	-0.003204	0.038452	-0.003357	-0.007629
47.999	-0.001678	-0.26825	-0.1886	0.013885	-0.011902	-0.003204	0.068512	-0.014801	-0.13443	0.013275	0.025635	-0.009766	-0.34775	0.14801	0.019989	0.010223	0.058746	0.081329	-0.39871	0.075073	0.08316	-0.036316	0.011749	-0.038757	-0.028534	-0.007477	0.56015	-0.012207	-0.062256	0.12924	-0.003357	-0.008392
48	0.00351	-0.242	-0.19409	-0.002289	-0.00824	-0.04776	0.10452	-0.009918	-0.11353	-0.018005	0.016785	-0.001984	-0.40207	0.24979	0.034943	0.006866	0.036621	0.054016	-0.42023	-0.011444	0.068817	-0.059967	0.02533	-0.045013	-0.033875	0.001221	0.084991	-0.00885	-0.019531	0.018616	-0.004272	-0.005951
48.001	0.007019	-0.17853	-0.089874	0.001831	-0.015106	-0.056305	0.015106	0.004272	-0.036163	0.002747	0.006866	-0.001221	-0.03891	0.24323	-0.034637	0.00473	0.072479	0.045013	-0.31799	-0.020294	0.065613	-0.061798	0.025635	-0.07782	-0.048523	0.001373	-0.66422	-0.001526	0.023499	-0.040894	-0.003357	-0.006409
48.002	0.016174	-0.084381	-0.10544	0.001526	0.01236	-0.052795	-0.13687	-0.008698	0.060883	0.025177	0.008392	-0.005798	-0.049744	0.12573	-0.14282	0.006866	0.071564	0.021057	-0.27298	0.010681	0.062561	-0.053101	0.008392	-0.085602	-0.046387	-0.002594	-0.31479	0.005188	-0.12772	0.009918	-0.001068	-0.011597
48.003	0.015717	-0.011749	-0.11398	0.006561	0.015717	-0.075989	-0.14542	-0.009766	0.094452	-0.050659	-0.044403	-0.006104	0.27344	0.11169	-0.17425	0.002747	0.058289	-0.007477	-0.32791	0.076141	0.072174	-0.028992	0.028992	-0.035095	-0.039368	0.003052	-0.080719	-0.005951	0.012512	-0.013123	-0.001221	-0.013123
48.004	0.023804	-0.001221	-0.08728	0.020142	-0.00061	-0.084991	-0.037384	-0.025482	0.090637	-0.015564	-0.030518	-0.006256	0.35599	0.01709	-0.025024	-0.010223	0.009918	0.04776	-0.37064	0.0383	0.067749	-0.032349	0.006104	-0.023956	-0.034027	0.002747	0.052948	-0.003357	0.34225	-0.12253	-0.001221	-0.018005
48.005	0.000153	0.058136	-0.11337	-0.000458	0.009766	-0.018768	0.030365	-0.020905	0.079346	-0.002136	-0.010834	-0.002899	0.26794	-0.038757	0.056915	-0.027313	-0.02243	0.022888	-0.31723	0.036011	0.087738	-0.016327	0.04837	0.020447	-0.036926	-0.004883	0.06958	0.000916	0.20691	-0.045776	-0.003357	-0.015259
48.006	0.052185	0.15472	0.020599	-0.004425	0.018768	0.10895	0.11032	-0.01297	0.072784	0.027771	-0.007935	-0.005035	0.025482	0.003815	0.049591	-0.021515	-0.060425	-0.004883	-0.32638	-0.028839	0.088959	-0.01358	0.071716	-0.005646	-0.03952	-0.001068	-0.079803	-0.00412	0.15991	0.074005	-0.004272	-0.010681
48.007	-0.037537	0.18539	0.073547	-0.02533	0.000763	0.17639	0.18036	-0.00061	-0.005341	0.04364	-0.026245	0.004272	0.18601	0.080261	0.006256	-0.024719	-0.067749	0.069122	-0.47775	-0.015106	0.071564	-0.010071	0.05722	-0.036774	-0.039978	-0.006714	0.047302	-0.007477	0.19241	0.06897	-0.00412	-0.00061
48.008	0.005798	0.15366	-0.094452	-0.006409	-0.013733	0.15869	0.15564	0.003967	-0.07782	0.052948	-0.013275	-0.008392	0.10895	-0.025787	-0.019073	0.012054	-0.066376	-0.01236	-0.55008	-0.073395	0.067596	-0.005646	0.039673	-0.042572	-0.010986	-0.005341	0.13199	-0.001678	0.14145	0.035095	-0.003052	-0.003662
48.009	0.000916	0.15121	-0.054626	0.021667	-0.007477	0.086517	0.11917	0.009918	-0.05722	0.06134	-0.010223	0.001526	0.06546	-0.035706	-0.01709	0.003357	-0.042725	0.065613	-0.37521	-0.12558	0.079651	0.00473	0.066681	-0.056763	-0.014191	0.001831	0.1294	-0.003204	0.003052	0.021057	0.007324	-0.002594
48.01	0.019073	0.10605	0.00351	0.059052	-0.001373	0.054016	-0.020447	0.002747	0.087433	0.054626	0.00412	-0.048981	-0.25055	-0.027466	0.00946	-0.013123	0.018768	0.036011	-0.36896	-0.12299	0.072174	0.00885	0.044403	-0.07019	-0.00061	0.002594	0.41412	-0.00473	-0.033417	0.012817	0	-0.003357
48.011	0.016022	0.070343	-0.097961	0.033264	0.001526	0.019836	-0.092773	0.003967	0.13611	0.035706	-0.002289	0.060272	-0.3122	-0.036163	0.044403	0.003204	0.026398	0.039368	-0.45258	-0.034332	0.071869	0.002136	0.063324	-0.01236	-0.003052	0.002441	0.54825	-0.002289	-0.02182	0.025635	-0.000916	-0.00824
48.012	0.015564	0.10254	-0.24292	-0.00885	-0.005493	-0.075684	-0.11353	0.024719	0.13763	0.001984	0.01297	0.036621	-0.048981	0.026245	0.032196	-0.015259	0.018311	0.076752	-0.42618	0.010529	0.075531	-0.003052	0.056	-0.033112	0.000916	0.003204	0.10803	0.000916	0.049744	0.009155	0.002136	-0.008392
48.013	0.009003	0.19974	0.004883	-0.001068	0.027313	-0.16541	0.001526	0.043945	0.14221	0.048828	-0.007629	-0.030365	0.19653	-0.044403	-0.007172	-0.018616	0.10483	0.088043	-0.50461	-0.007477	0.072021	0.006256	0.031281	-0.055084	-0.001068	0.001831	-0.98068	-0.000305	0.084381	-0.010376	-0.00351	-0.002747
48.014	0.002899	0.25589	0.18936	-0.013428	-0.00824	-0.16724	0.074921	0.049896	0.177	0.011597	-0.00946	-0.029449	0.22903	-0.060272	0.000153	-0.017548	0.13855	0.11551	-0.48828	0.003204	0.073395	0.015869	0.056305	-0.026855	0.020294	0.005798	-0.68634	-0.006256	0.011444	-0.065918	-0.002136	-0.005951
48.015	0.002441	0.21561	0.29236	-0.011749	-0.008545	-0.078278	0.053253	0.033112	0.13962	-0.12909	-0.004425	-0.011139	0.28992	0.077057	0.005188	0.034027	0.10681	0.13718	-0.54306	0.062408	0.069122	0.011139	0.049133	0.006866	0	-0.003357	-0.21637	-0.010681	-0.082092	-0.006714	-0.00473	-0.001526
48.016	0.011597	0.15243	0.26733	-0.009003	-0.036316	-0.022278	0.011444	0.009308	0.018005	-0.19623	-0.022888	-0.011444	0.3009	0.071106	-0.029449	0.033569	0.033569	0.13809	-0.50125	0.088196	0.054321	0.007782	0.062103	-0.015411	-0.018463	0.001678	-0.14343	-0.006561	-0.06897	-0.008545	-0.003357	-0.012817
48.017	0.006409	0.11871	0.14542	-0.001221	0.010986	-0.021057	0.022278	-0.002136	-0.11383	-0.12436	-0.024719	-0.009155	0.18173	0.20828	0.022736	0.006409	-0.050964	0.1355	-0.10635	0.004272	0.053406	0.014648	0.049286	-0.007629	-0.030365	0.002899	0.34668	-0.001678	-0.010223	-0.015106	-0.00061	-0.010834
48.018	0.000153	0.10712	0.040283	0.017548	0.029602	-0.016785	0.054169	-0.016022	-0.2739	-0.0914	0.01297	-0.002747	0.12009	0.21606	0.062866	-0.004425	-0.078278	0.11643	-0.24338	0.013428	0.049591	0.001678	0.045166	-0.014343	-0.019073	-0.001831	0.30914	-0.008698	-0.017242	-0.015411	-0.004425	-0.013733
48.019	-0.010681	0.13107	0.12207	0.024414	0.014801	-0.007019	0.10193	-0.007782	-0.26276	-0.054932	0.04837	-0.002594	0.076599	0.14923	0.063477	-0.000763	-0.10101	0.092621	-0.54047	0.014191	0.058441	0.032654	0.029602	-0.022736	-0.006409	-0.007324	-0.24399	-0.002136	-0.076141	0.004272	0.001984	-0.013733
48.02	-0.00473	0.11536	0.13519	0.000305	0.015411	0.16785	0.068054	0.013733	-0.19623	-0.03952	0.036316	0.000305	0.17029	0.03891	0.0354	-0.00946	-0.10971	0.078278	-0.43015	0.0177	0.057983	0.010986	0.031891	-0.008698	-0.008698	0.001984	-0.42038	-0.001526	0.11261	-0.069275	0.001526	-0.003204
48.021	-0.003662	0.17868	-0.046997	0.00946	-0.01297	0.37537	0.010529	0.018768	-0.18875	-0.090942	-0.022278	-0.005188	-0.10162	-0.1886	0.026245	0.012512	-0.090942	0.089264	-0.43762	0.045929	0.054474	0.010071	0.013123	-0.026398	-0.011139	0.00351	-0.13718	0.001221	0.12344	-0.13886	0.000153	-0.010529
48.022	-0.005035	0.11459	0.010834	0.001526	0.005493	0.42328	-0.053864	0.061951	-0.19638	-0.085754	-0.026855	0.000916	0.12665	-0.06546	-0.010986	0.00351	-0.057678	0.093842	-0.4509	0.062561	0.059967	0.023041	0.050659	-0.006104	-0.008698	0.002136	-0.1384	0.000763	0.025787	-0.17609	0.001526	-0.014496
48.023	0.003967	0.10468	0.083008	0.006561	-0.000458	0.43442	-0.13062	0.048828	-0.17303	-0.030975	0.030365	-0.000458	-0.6308	-0.051727	-0.071106	-0.002136	-0.037231	0.074921	-0.42191	0.034943	0.083618	0.010223	0.017853	0.030518	-0.005341	0.000305	-0.15198	-0.002899	-0.004578	-0.16342	-0.001068	-0.009918
48.024	0.003357	0.071259	0.12558	-0.003815	-0.009308	0.45883	-0.22873	0.006561	-0.10498	-0.052948	0.042419	-0.005188	-0.98602	0.018311	-0.032043	0.003815	-0.020599	0.064545	-0.63339	0.079346	0.091553	0.031281	-0.024719	-0.007782	-0.008087	0.00824	0.41489	-0.000153	0.016937	-0.17075	-0.003815	-0.012512
48.025	-0.018616	0.053253	0.047913	-0.009766	-0.001221	0.48004	-0.10696	-0.034485	-0.004578	-0.066223	0.021667	-0.005493	-0.7132	0.14984	-0.011749	0.009918	-0.00824	0.049744	-0.61432	0.09903	0.082092	0.002289	0.029602	-0.00351	-0.011902	0.010223	0.21957	-0.002594	0.005341	-0.055237	0.003052	-0.007782
48.026	-0.039825	0.031281	0.12985	0.003662	0.005798	-0.028229	0.085907	-0.031738	0.15854	-0.057068	0.018158	-0.002899	-0.42114	0.26962	-0.020142	0.020752	-0.00412	0.0354	-0.36591	-0.032349	0.072784	0.016937	0.048676	-0.028534	-0.001068	-0.000153	-0.081787	-0.000763	-0.002136	0.054626	-0.001984	-0.007782
48.027	-0.015411	0.061646	0.082092	0.006866	0.009155	-0.35782	0.19547	-0.023193	0.20783	-0.07782	-0.011902	-0.005035	-0.23041	0.15701	-0.090179	0.007324	0.002289	0.12604	-0.18784	-0.15076	0.055084	-0.009155	0.041046	-0.023956	0.004425	0.000305	-0.1265	-0.001221	0.017853	0.020599	-0.003052	0.000458
48.028	0.018768	-0.024109	-0.045929	0.03418	0.000153	-0.26382	0.11536	-0.02243	0.12589	-0.025177	-0.040894	0.003357	0.032196	0.025482	-0.13916	-0.002136	0.007477	0.079498	-0.35934	-0.035858	0.048065	-0.015564	0.04425	-0.05188	-0.010376	-0.005951	-0.084686	-0.001373	-0.026703	0.09491	0.001526	-0.001526
48.029	-0.001984	-0.043182	-0.11246	0.044556	0.006409	-0.11719	0.016327	-0.028534	0.13687	0.000153	-0.032501	-0.00946	0.16647	0.043793	-0.090942	0.005493	0.051117	0.091705	-0.49606	-0.027618	0.037689	-0.005188	0.011597	-0.034943	-0.005951	-0.004578	-0.0383	-0.002136	0.079803	0.14389	-0.00412	0.003357
48.03	-0.002594	-0.034637	-0.000916	-0.00885	0.003815	-0.37277	-0.103	-0.023193	0.20111	0.03067	-0.020752	-0.000458	0.3894	-0.05188	-0.061951	0.020142	0.074921	0.075531	-0.57571	-0.062866	0.031891	-0.007782	-0.000763	-0.023346	-0.008392	-0.000763	-0.019226	-0.005188	0.063782	0.042114	-0.005951	0.003967
48.031	-0.003815	-0.081635	-0.044861	-0.003662	0.011749	-0.56717	-0.15747	0.002289	0.27313	0.048828	-0.017853	0.001526	0.77591	-0.15442	-0.038757	-0.003662	0.088654	0.06958	-0.53818	-0.010986	0.033722	-0.003052	0.040283	-0.041809	-0.001221	-0.003052	0.49149	-0.00061	-0.13641	-0.032959	-0.003357	-0.001221
48.032	-0.000916	-0.1178	-0.019073	0.01236	0.002289	-0.43488	-0.16266	0.003815	0.31326	-0.000305	0.003357	-0.005951	0.63232	-0.11292	0.10529	0.003204	0.12009	0.10803	-0.39856	-0.013123	0.01297	-0.01358	0.007019	-0.045624	0.002594	-0.002136	0.50415	-0.002136	-0.1329	-0.054016	-0.001526	-0.00885
48.033	-0.001221	-0.088043	-0.012207	0.011444	0.014343	-0.28595	-0.06546	0.011139	0.2623	-0.005798	0.010681	0.007935	0.54092	-0.047302	0.14923	-0.005798	0.12482	0.12009	-0.33615	0.021362	0.017395	-0.01297	0.036316	-0.053864	-0.018768	-0.00885	0.4306	-0.000458	-0.088043	-0.056152	-0.002747	-0.011292
